<svg xmlns="http://www.w3.org/2000/svg" xmlns:xlink="http://www.w3.org/1999/xlink" width="52.155" height="52.155" viewBox="0 0 52.155 52.155">
  <defs>
    <clipPath id="clip-path">
      <rect id="Rectangle_64" data-name="Rectangle 64" width="27.812" height="27.813" fill="#144ced"/>
    </clipPath>
  </defs>
  <g id="Group_9026" data-name="Group 9026" transform="translate(-331.882 -1640.975)">
    <path id="Path_33497" data-name="Path 33497" d="M537.639,50.154H509.484a11,11,0,0,1-11-11V11a11,11,0,0,1,11-11h28.154a11,11,0,0,1,11,11V39.154a11,11,0,0,1-11,11" transform="translate(-165.602 1641.976)" fill="#fff"/>
    <path id="Path_33497_-_Outline" data-name="Path 33497 - Outline" d="M537.639,51.154H509.484a12,12,0,0,1-12-12V11a12,12,0,0,1,12-12h28.154a12,12,0,0,1,12,12V39.154a12,12,0,0,1-12,12ZM509.484,1a10.011,10.011,0,0,0-10,10V39.154a10.011,10.011,0,0,0,10,10h28.154a10.011,10.011,0,0,0,10-10V11a10.011,10.011,0,0,0-10-10Z" transform="translate(-165.602 1641.976)" fill="#034bf1"/>
    <g id="Group_8916" data-name="Group 8916" transform="translate(344.48 1653.895)">
      <path id="Path_4018" data-name="Path 4018" d="M6.162,16.665l-.829-1.248,10.6-7.035,10.6,7.035-.829,1.248-9.775-6.486Z" transform="translate(-2.031 -3.191)" fill="#144ced"/>
      <rect id="Rectangle_63" data-name="Rectangle 63" width="1.498" height="13.452" transform="translate(6.122 13.612)" fill="#144ced"/>
      <g id="Group_76" data-name="Group 76" transform="translate(0 0)">
        <g id="Group_75" data-name="Group 75" clip-path="url(#clip-path)">
          <path id="Path_4019" data-name="Path 4019" d="M23.874,27.813H20.193V10.757h1.5V26.315h2.183a2.443,2.443,0,0,0,2.441-2.441V3.939A2.443,2.443,0,0,0,23.874,1.5H3.939A2.443,2.443,0,0,0,1.5,3.939V23.874a2.443,2.443,0,0,0,2.441,2.441h7.608v1.5H3.939A3.944,3.944,0,0,1,0,23.874V3.939A3.943,3.943,0,0,1,3.939,0H23.874a3.943,3.943,0,0,1,3.939,3.939V23.874a3.944,3.944,0,0,1-3.939,3.939" transform="translate(0 0)" fill="#144ced"/>
          <path id="Path_4020" data-name="Path 4020" d="M23.653,38.448H17.436V31.041a3.108,3.108,0,1,1,6.217,0Zm-4.719-1.5h3.221V31.041a1.61,1.61,0,0,0-3.221,0Z" transform="translate(-6.638 -10.635)" fill="#144ced"/>
        </g>
      </g>
    </g>
  </g>
</svg>
