<svg xmlns="http://www.w3.org/2000/svg" width="24" height="24" viewBox="0 0 24 24">
  <g id="category-2" transform="translate(-172 -188)">
    <path id="Vector" d="M5,8.75H3A3.383,3.383,0,0,1-.75,5V3A3.383,3.383,0,0,1,3-.75H5A3.383,3.383,0,0,1,8.75,3V5A3.383,3.383,0,0,1,5,8.75Zm-2-8C1.423.75.75,1.423.75,3V5c0,1.577.673,2.25,2.25,2.25H5c1.577,0,2.25-.673,2.25-2.25V3C7.25,1.423,6.577.75,5,.75Z" transform="translate(186 190)" fill="#fff"/>
    <path id="Vector-2" data-name="Vector" d="M5,8.75H3A3.383,3.383,0,0,1-.75,5V3A3.383,3.383,0,0,1,3-.75H5A3.383,3.383,0,0,1,8.75,3V5A3.383,3.383,0,0,1,5,8.75Zm-2-8C1.423.75.75,1.423.75,3V5c0,1.577.673,2.25,2.25,2.25H5c1.577,0,2.25-.673,2.25-2.25V3C7.25,1.423,6.577.75,5,.75Z" transform="translate(174 202)" fill="#fff"/>
    <path id="Vector-3" data-name="Vector" d="M4-.75A4.75,4.75,0,1,1-.75,4,4.755,4.755,0,0,1,4-.75Zm0,8A3.25,3.25,0,1,0,.75,4,3.254,3.254,0,0,0,4,7.25Z" transform="translate(174 190)" fill="#fff" opacity="0.34"/>
    <path id="Vector-4" data-name="Vector" d="M4-.75A4.75,4.75,0,1,1-.75,4,4.755,4.755,0,0,1,4-.75Zm0,8A3.25,3.25,0,1,0,.75,4,3.254,3.254,0,0,0,4,7.25Z" transform="translate(186 202)" fill="#fff" opacity="0.34"/>
    <path id="Vector-5" data-name="Vector" d="M0,0H24V24H0Z" transform="translate(172 188)" fill="none" opacity="0"/>
  </g>
</svg>
