<svg xmlns="http://www.w3.org/2000/svg" xmlns:xlink="http://www.w3.org/1999/xlink" width="27.558" height="28.441" viewBox="0 0 27.558 28.441">
  <defs>
    <clipPath id="clip-path">
      <rect id="Rectangle_65" data-name="Rectangle 65" width="27.558" height="28.441" fill="#dbdbdb"/>
    </clipPath>
  </defs>
  <g id="Group_79" data-name="Group 79" opacity="0.4">
    <g id="Group_78" data-name="Group 78" transform="translate(0 0)" clip-path="url(#clip-path)">
      <path id="Path_4021" data-name="Path 4021" d="M23.859,33H3.7A3.7,3.7,0,0,1,.036,28.783L2.4,11.968h22.75l2.367,16.815A3.7,3.7,0,0,1,23.859,33M3.735,13.5,1.552,29A2.167,2.167,0,0,0,3.7,31.466h20.16A2.167,2.167,0,0,0,26,29L23.823,13.5Z" transform="translate(0 -4.556)" fill="#dbdbdb"/>
      <path id="Path_4022" data-name="Path 4022" d="M24.512,11.8H22.981V5.873a4.341,4.341,0,1,0-8.682,0V11.8H12.767V5.873a5.873,5.873,0,1,1,11.745,0Z" transform="translate(-4.861 0)" fill="#dbdbdb"/>
      <path id="Path_4023" data-name="Path 4023" d="M17.57,32.749l-3.1-3.1,1.083-1.082,2.018,2.018,5.453-5.453,1.083,1.082Z" transform="translate(-5.509 -9.567)" fill="#dbdbdb"/>
    </g>
  </g>
</svg>
